<?xml version="1.0" standalone="no"?>
<!DOCTYPE svg PUBLIC "-//W3C//DTD SVG 20010904//EN"
 "http://www.w3.org/TR/2001/REC-SVG-20010904/DTD/svg10.dtd">
<svg version="1.0" xmlns="http://www.w3.org/2000/svg"
 width="800.000000pt" height="800.000000pt" viewBox="0 0 800.000000 800.000000"
 preserveAspectRatio="xMidYMid meet">
<metadata>
Created by potrace 1.14, written by Peter Selinger 2001-2017
</metadata>
<g transform="translate(0.000000,800.000000) scale(0.100000,-0.100000)"
fill="#000000" stroke="none">
<path d="M970 5835 c-270 -46 -459 -159 -556 -332 -101 -180 -68 -447 75 -589
137 -138 284 -204 601 -270 91 -19 193 -44 228 -55 53 -18 65 -26 81 -57 32
-65 9 -149 -53 -189 -64 -41 -130 -56 -259 -57 -156 -1 -232 11 -368 60 -97
35 -157 66 -252 131 -42 29 -88 53 -100 53 l-24 0 0 -220 0 -220 23 -6 c13 -3
24 -12 24 -19 0 -20 161 -77 320 -114 124 -29 195 -36 380 -36 199 0 273 9
390 47 239 77 398 224 450 417 28 105 14 274 -30 366 -44 91 -160 196 -286
259 -87 43 -236 90 -354 112 -14 3 -53 11 -88 19 -34 8 -75 17 -91 20 -71 12
-161 47 -176 68 -19 27 -20 99 -1 136 19 35 81 78 143 98 74 24 264 25 366 3
118 -26 231 -72 332 -135 137 -86 131 -93 130 148 0 111 -4 208 -8 215 -5 6
-15 12 -23 12 -8 0 -14 6 -14 14 0 25 -236 93 -425 121 -84 13 -360 13 -435 0z"/>
<path d="M2853 5835 c-140 -25 -295 -88 -393 -160 -253 -187 -381 -543 -336
-930 34 -285 143 -484 356 -644 94 -70 177 -112 290 -145 127 -36 141 -38 320
-41 158 -3 211 3 360 39 39 10 152 52 216 81 l70 32 1 217 0 216 -23 0 c-17 0
-24 6 -24 20 0 33 -46 25 -99 -18 -120 -100 -252 -171 -349 -189 -64 -12 -215
-9 -267 6 -151 42 -240 133 -291 300 -37 121 -39 355 -3 471 75 244 256 374
509 366 137 -5 250 -52 405 -169 64 -48 97 -67 115 -65 l25 3 1 218 c1 123 -3
217 -8 217 -5 0 -19 10 -31 23 -27 29 -187 98 -277 121 -179 44 -416 57 -567
31z"/>
<path d="M4495 5798 c-17 -47 -316 -861 -328 -893 -9 -22 -72 -195 -142 -385
-69 -190 -130 -353 -135 -362 -6 -10 -10 -23 -10 -29 0 -6 -6 -25 -14 -42 -8
-18 -19 -47 -24 -64 -11 -32 -10 -33 19 -33 26 0 29 -3 24 -20 -6 -20 -3 -20
231 -18 l237 3 62 180 61 180 320 3 319 2 55 -162 c48 -141 58 -163 78 -166
14 -2 22 -10 22 -23 0 -18 10 -19 246 -19 230 0 246 1 239 18 -7 17 -127 343
-535 1452 -16 41 -50 136 -78 210 -39 108 -53 136 -70 138 -11 2 -22 12 -25
23 -5 18 -16 19 -276 19 -208 0 -273 -3 -276 -12z m360 -718 c27 -80 67 -200
91 -267 l43 -123 -190 0 c-104 0 -189 4 -189 8 0 5 41 127 90 271 50 145 90
266 90 269 0 24 24 -35 65 -158z"/>
<path d="M5970 4900 l0 -910 25 0 c18 0 25 -5 25 -20 0 -19 7 -20 215 -20
l215 0 2 601 3 600 95 -152 c52 -84 97 -157 99 -163 2 -5 8 -15 13 -21 5 -5
121 -192 258 -415 141 -229 258 -407 268 -411 11 -4 22 -15 25 -23 6 -15 33
-16 234 -14 l228 3 0 890 c0 490 -1 898 -3 908 -3 10 -14 17 -28 17 -13 0 -23
3 -23 8 5 32 0 32 -213 30 l-213 -3 0 -497 c0 -274 0 -498 -1 -498 0 0 -16 24
-34 53 -19 28 -61 95 -95 147 -33 52 -94 148 -135 213 -41 65 -114 180 -162
255 -48 75 -109 172 -135 214 -29 46 -55 78 -65 78 -9 0 -20 9 -23 20 -6 19
-15 20 -291 20 l-284 0 0 -910z"/>
<path d="M1380 3465 l0 -175 25 0 c18 0 25 -5 25 -20 0 -19 7 -20 259 -20
l259 0 0 -687 c1 -379 1 -700 1 -715 1 -23 5 -28 27 -28 21 0 25 -4 21 -20 -5
-20 -2 -20 231 -18 l237 3 2 715 c0 393 1 723 2 732 1 16 24 18 283 20 l282 3
0 170 0 169 -24 6 c-15 4 -24 13 -24 23 2 16 -55 17 -802 17 l-804 0 0 -175z"/>
<path d="M3080 3635 c0 -4 78 -118 184 -269 30 -43 43 -62 218 -311 162 -233
218 -314 218 -321 0 -3 -37 -58 -83 -122 -46 -64 -129 -182 -185 -262 -56 -80
-162 -230 -236 -335 l-133 -190 33 -3 c36 -3 41 -11 22 -30 -9 -9 46 -12 249
-12 l260 0 151 228 c83 125 155 232 159 237 5 6 23 34 42 63 l34 53 170 -258
c93 -142 172 -264 174 -270 3 -7 11 -13 19 -13 7 0 19 -9 27 -20 14 -20 23
-20 284 -18 l270 3 -193 280 c-107 154 -199 288 -205 297 -65 90 -232 336
-236 345 -3 7 137 210 311 453 l316 440 -35 0 c-37 0 -43 8 -23 28 9 9 -46 12
-249 12 l-262 0 -103 -150 c-57 -83 -128 -186 -158 -230 -30 -44 -69 -100 -86
-125 l-31 -45 -169 255 c-105 158 -175 255 -185 255 -9 0 -19 9 -22 20 -5 19
-14 20 -276 20 -149 0 -271 -2 -271 -5z"/>
<path d="M4990 3465 l0 -175 25 0 c18 0 25 -5 25 -20 0 -19 7 -20 258 -20
l259 0 1 -687 c0 -379 1 -700 1 -715 1 -23 6 -28 26 -28 18 0 25 -5 25 -20 0
-19 7 -20 233 -20 l233 0 0 733 -1 732 285 5 284 5 1 173 0 172 -27 0 c-16 0
-27 3 -27 8 5 32 9 32 -801 32 l-800 0 0 -175z"/>
</g>
</svg>
